<svg width="599" height="573" viewBox="0 0 599 573" fill="none" xmlns="http://www.w3.org/2000/svg">
<path d="M259.154 27.8469C277.953 -8.99516 330.807 -8.38061 348.745 28.8886L399.96 135.3C407.984 151.971 424.558 162.849 443.045 163.577L550.667 167.818C594.923 169.561 615.228 223.734 583.022 254.137L495.663 336.605C481.792 349.701 476.58 369.548 482.229 387.769L518.11 503.514C530.872 544.681 489.051 581.627 449.772 563.887L325.256 507.649C312.36 501.824 297.601 501.737 284.637 507.407L145.826 568.127C107.499 584.892 66.7579 549.986 77.4473 509.542L110.268 385.362C114.755 368.386 110.008 350.301 97.7631 337.716L15.1964 252.862C-14.977 221.853 5.80721 169.757 49.0395 168.033L161.257 163.559C179.319 162.839 195.586 152.426 203.802 136.324L259.154 27.8469Z" fill="#DB3593"/>
</svg>
