<svg width="731" height="670" viewBox="0 0 731 670" fill="none" xmlns="http://www.w3.org/2000/svg">
<path d="M366.083 0.796941C366.459 0.0600992 367.516 0.0723879 367.875 0.817772L474.739 222.851C474.9 223.185 475.231 223.402 475.601 223.417L729.123 233.406C730.008 233.441 730.415 234.525 729.77 235.133L535.453 418.572C535.176 418.834 535.072 419.231 535.185 419.595L612.342 668.485C612.597 669.308 611.761 670.047 610.975 669.692L367.405 559.683C367.147 559.566 366.852 559.565 366.593 559.678L114.897 669.777C114.13 670.113 113.315 669.414 113.529 668.606L179.355 419.547C179.445 419.208 179.35 418.846 179.105 418.594L0.563929 235.107C-0.0395377 234.487 0.376144 233.445 1.24079 233.411L251.915 223.417C252.276 223.402 252.602 223.194 252.766 222.872L366.083 0.796941Z" fill="#DB3593"/>
</svg>
